Results
version=1
nRows=15
nColumns=39
inDegrees=yes
endheader
time	/jointset/UpperExo_to_pelvis/hip_exo_r/value	/jointset/UpperExo_to_pelvis/hip_exo_r/speed	/jointset/UpperExo_to_pelvis/exo_tx/value	/jointset/UpperExo_to_pelvis/exo_tx/speed	/jointset/LowExo_to_UpperExo/LowExo_to_UpperExo_rz/value	/jointset/LowExo_to_UpperExo/LowExo_to_UpperExo_rz/speed	/jointset/ground_pelvis/pelvis_tilt/value	/jointset/ground_pelvis/pelvis_tilt/speed	/jointset/ground_pelvis/pelvis_tx/value	/jointset/ground_pelvis/pelvis_tx/speed	/jointset/ground_pelvis/pelvis_ty/value	/jointset/ground_pelvis/pelvis_ty/speed	/jointset/hip_r/hip_flexion_r/value	/jointset/hip_r/hip_flexion_r/speed	/jointset/knee_r/knee_angle_r/value	/jointset/knee_r/knee_angle_r/speed	/jointset/tib_pat_r/knee_angle_pat_r/value	/jointset/tib_pat_r/knee_angle_pat_r/speed	/jointset/ankle_r/ankle_angle_r/value	/jointset/ankle_r/ankle_angle_r/speed	/forceset/bifemlh_r/activation	/forceset/bifemlh_r/fiber_length	/forceset/bifemsh_r/activation	/forceset/bifemsh_r/fiber_length	/forceset/glut_max2_r/activation	/forceset/glut_max2_r/fiber_length	/forceset/psoas_r/activation	/forceset/psoas_r/fiber_length	/forceset/rect_fem_r/activation	/forceset/rect_fem_r/fiber_length	/forceset/vas_int_r/activation	/forceset/vas_int_r/fiber_length	/forceset/med_gas_r/activation	/forceset/med_gas_r/fiber_length	/forceset/soleus_r/activation	/forceset/soleus_r/fiber_length	/forceset/tib_ant_r/activation	/forceset/tib_ant_r/fiber_length
      5.60878554	     93.22299922	      0.00000000	      0.01999047	      0.00000000	    -65.46648494	      7.14822902	      1.14702713	     -0.00000000	      0.05768549	      0.00000000	      1.06004667	     -0.00000000	     90.00020523	      0.00000000	    -53.12309925	     -5.00365472	     -0.92717299	     -0.08733025	   -144.05316074	     12.45490490	     -0.69668901	      0.16672044	     -0.69668901	      0.17015955	     -0.69668901	      0.15698474	     -0.69668901	      0.04239262	     -0.69668901	      0.08745566	     -0.69668901	      0.12415714	     -0.69668901	      0.03458663	     -0.69668901	      0.04081318	     -0.69668901	      0.12094333
      5.61229774	     93.22299922	      0.00000000	      0.01999047	      0.00000000	    -65.42396179	     16.92501689	      1.14702713	     -0.00000000	      0.05768549	      0.00000000	      1.06004667	     -0.00000000	     90.00020523	      0.00000000	    -53.14604347	     -8.00813464	     -0.92757344	     -0.13976832	   -144.00201981	     16.51961159	     -0.69714121	      0.16671053	     -0.69714121	      0.17014935	     -0.69714121	      0.15698474	     -0.69714121	      0.04239262	     -0.69714121	      0.08745416	     -0.69714121	      0.12416159	     -0.69714121	      0.03456856	     -0.69714121	      0.04080261	     -0.69714121	      0.12094928
      5.61423445	     93.22299922	      0.00000000	      0.01999047	      0.00000000	    -65.38633404	     21.86707764	      1.14702713	     -0.00000000	      0.05768549	      0.00000000	      1.06004667	     -0.00000000	     90.00020523	      0.00000000	    -53.16302033	     -9.50025099	     -0.92786975	     -0.16581066	   -143.96819938	     18.35272378	     -0.69739056	      0.16670243	     -0.69739056	      0.17014105	     -0.69739056	      0.15698474	     -0.69739056	      0.04239262	     -0.69739056	      0.08745556	     -0.69739056	      0.12416680	     -0.69739056	      0.03455522	     -0.69739056	      0.04079563	     -0.69739056	      0.12095454
      5.61661461	     93.22299922	      0.00000000	      0.01999047	      0.00000000	    -65.32763277	     27.33577738	      1.14702713	     -0.00000000	      0.05768549	      0.00000000	      1.06004667	     -0.00000000	     90.00020523	      0.00000000	    -53.18761286	    -11.12189057	     -0.92829897	     -0.19411361	   -143.92228711	     20.13534465	     -0.69769700	      0.16669018	     -0.69769700	      0.17012849	     -0.69769700	      0.15698474	     -0.69769700	      0.04239262	     -0.69769700	      0.08745928	     -0.69769700	      0.12417627	     -0.69769700	      0.03453613	     -0.69769700	      0.04078592	     -0.69769700	      0.12096301
      5.61899478	     93.22299922	      0.00000000	      0.01999047	      0.00000000	    -65.25684746	     31.99786717	      1.14702713	     -0.00000000	      0.05768549	      0.00000000	      1.06004667	     -0.00000000	     90.00020523	      0.00000000	    -53.21574563	    -12.46836636	     -0.92878998	     -0.21761405	   -143.87279066	     21.36027452	     -0.69800345	      0.16667569	     -0.69800345	      0.17011365	     -0.69800345	      0.15698474	     -0.69800345	      0.04239262	     -0.69800345	      0.08746547	     -0.69800345	      0.12418927	     -0.69800345	      0.03451462	     -0.69800345	      0.04077557	     -0.69800345	      0.12097359
      5.62104447	     93.22299922	      0.00000000	      0.01999047	      0.00000000	    -65.18778525	     35.26856369	      1.14702713	     -0.00000000	      0.05768549	      0.00000000	      1.06004667	     -0.00000000	     90.00020523	      0.00000000	    -53.24227650	    -13.37902080	     -0.92925303	     -0.23350796	   -143.82834337	     21.93293297	     -0.69826735	      0.16666170	     -0.69826735	      0.17009932	     -0.69826735	      0.15698474	     -0.69826735	      0.04239262	     -0.69826735	      0.08747292	     -0.69826735	      0.12420324	     -0.69826735	      0.03449465	     -0.69826735	      0.04076602	     -0.69826735	      0.12098424
      5.62309417	     93.22299922	      0.00000000	      0.01999047	      0.00000000	    -65.11278642	     37.78088959	      1.14702713	     -0.00000000	      0.05768549	      0.00000000	      1.06004667	     -0.00000000	     90.00020523	      0.00000000	    -53.27042122	    -14.04060429	     -0.92974424	     -0.24505477	   -143.78318491	     22.05500624	     -0.69853125	      0.16664660	     -0.69853125	      0.17008383	     -0.69853125	      0.15698474	     -0.69853125	      0.04239262	     -0.69853125	      0.08748239	     -0.69853125	      0.12421959	     -0.69853125	      0.03447380	     -0.69853125	      0.04075651	     -0.69853125	      0.12099609
      5.62514387	     93.22299922	      0.00000000	      0.01999047	      0.00000000	    -65.03345933	     39.48494531	      1.14702713	     -0.00000000	      0.05768549	      0.00000000	      1.06004667	     -0.00000000	     90.00020523	      0.00000000	    -53.29965514	    -14.44005941	     -0.93025447	     -0.25202658	   -143.73824897	     21.71413771	     -0.69879514	      0.16663067	     -0.69879514	      0.17006749	     -0.69879514	      0.15698474	     -0.69879514	      0.04239262	     -0.69879514	      0.08749388	     -0.69879514	      0.12423801	     -0.69879514	      0.03445250	     -0.69879514	      0.04074686	     -0.69879514	      0.12100888
      5.62719356	     93.22299922	      0.00000000	      0.01999047	      0.00000000	    -64.95149760	     40.34755416	      1.14702713	     -0.00000000	      0.05768549	      0.00000000	      1.06004667	     -0.00000000	     90.00020523	      0.00000000	    -53.32943260	    -14.57025212	     -0.93077419	     -0.25429887	   -143.69447713	     20.92218119	     -0.69905904	      0.16661421	     -0.69905904	      0.17005059	     -0.69905904	      0.15698474	     -0.69905904	      0.04239262	     -0.69905904	      0.08750728	     -0.69905904	      0.12425808	     -0.69905904	      0.03443122	     -0.69905904	      0.04073756	     -0.69905904	      0.12102231
      5.62979691	     93.22299922	      0.00000000	      0.01999047	      0.00000000	    -64.84634104	     40.20712726	      1.14702713	     -0.00000000	      0.05768549	      0.00000000	      1.06004667	     -0.00000000	     90.00020523	      0.00000000	    -53.36716497	    -14.34458895	     -0.93143274	     -0.25036031	   -143.64199394	     19.27909223	     -0.69939422	      0.16659303	     -0.69939422	      0.17002883	     -0.69939422	      0.15698474	     -0.69939422	      0.04239262	     -0.69939422	      0.08752679	     -0.69939422	      0.12428521	     -0.69939422	      0.03440489	     -0.69939422	      0.04072617	     -0.69939422	      0.12103977
      5.63157174	     93.22299922	      0.00000000	      0.01999047	      0.00000000	    -64.77567210	     39.32202846	      1.14702713	     -0.00000000	      0.05768549	      0.00000000	      1.06004667	     -0.00000000	     90.00020523	      0.00000000	    -53.39229788	    -13.94413298	     -0.93187139	     -0.24337103	   -143.60906238	     17.78109075	     -0.69962273	      0.16657872	     -0.69962273	      0.17001412	     -0.69962273	      0.15698474	     -0.69962273	      0.04239262	     -0.69962273	      0.08754143	     -0.69962273	      0.12430427	     -0.69962273	      0.03438779	     -0.69962273	      0.04071922	     -0.69962273	      0.12105161
      5.63334657	     93.22299922	      0.00000000	      0.01999047	      0.00000000	    -64.70713079	     37.81286697	      1.14702713	     -0.00000000	      0.05768549	      0.00000000	      1.06004667	     -0.00000000	     90.00020523	      0.00000000	    -53.41654742	    -13.35045975	     -0.93229463	     -0.23300948	   -143.57905118	     15.99155928	     -0.69985124	      0.16656474	     -0.69985124	      0.16999974	     -0.69985124	      0.15698474	     -0.69985124	      0.04239262	     -0.69985124	      0.08755691	     -0.69985124	      0.12432344	     -0.69985124	      0.03437168	     -0.69985124	      0.04071268	     -0.69985124	      0.12106318
      5.63591968	     93.22299922	      0.00000000	      0.01999047	      0.00000000	    -64.61374803	     34.56891349	      1.14702713	     -0.00000000	      0.05768549	      0.00000000	      1.06004667	     -0.00000000	     90.00020523	      0.00000000	    -53.44945568	    -12.16678819	     -0.93286899	     -0.21235051	   -143.54171864	     12.94218291	     -0.70018253	      0.16654545	     -0.70018253	      0.16997989	     -0.70018253	      0.15698474	     -0.70018253	      0.04239262	     -0.70018253	      0.08758035	     -0.70018253	      0.12435077	     -0.70018253	      0.03435057	     -0.70018253	      0.04070455	     -0.70018253	      0.12107907
      5.63835963	     93.22299922	      0.00000000	      0.01999047	      0.00000000	    -64.53425387	     30.42868726	      1.14702713	     -0.00000000	      0.05768549	      0.00000000	      1.06004667	     -0.00000000	     90.00020523	      0.00000000	    -53.47744045	    -10.72326443	     -0.93335741	     -0.18715627	   -143.51411069	      9.62527702	     -0.70049667	      0.16652867	     -0.70049667	      0.16996261	     -0.70049667	      0.15698474	     -0.70049667	      0.04239262	     -0.70049667	      0.08760303	     -0.70049667	      0.12437552	     -0.70049667	      0.03433351	     -0.70049667	      0.04069832	     -0.70049667	      0.12109275
      5.64079959	     93.22299922	      0.00000000	      0.01999047	      0.00000000	    -64.46600045	     25.37787880	      1.14702713	     -0.00000000	      0.05768549	      0.00000000	      1.06004667	     -0.00000000	     90.00020523	      0.00000000	    -53.50156496	     -9.01051338	     -0.93377846	     -0.15726313	   -143.49500124	      5.99716593	     -0.70081082	      0.16651380	     -0.70081082	      0.16994728	     -0.70081082	      0.15698474	     -0.70081082	      0.04239262	     -0.70081082	      0.08762546	     -0.70081082	      0.12439850	     -0.70081082	      0.03431980	     -0.70081082	      0.04069404	     -0.70081082	      0.12110472
